<svg width="10" height="6" viewBox="0 0 10 6" fill="none" xmlns="http://www.w3.org/2000/svg">
<path fill-rule="evenodd" clip-rule="evenodd" d="M9.61625 1.56066C9.81151 1.3654 9.81151 1.04882 9.61625 0.853553L8.90914 0.146447C8.71388 -0.0488155 8.3973 -0.0488157 8.20204 0.146446L5.37426 2.97422C5.179 3.16949 4.86241 3.16949 4.66715 2.97422L1.8394 0.146467C1.64413 -0.048795 1.32755 -0.048795 1.13229 0.146467L0.425182 0.853574C0.229919 1.04884 0.22992 1.36542 0.425182 1.56068L3.60617 4.74166C3.60635 4.74184 3.60635 4.74214 3.60617 4.74232C3.60599 4.74249 3.60599 4.74279 3.60617 4.74297L4.68782 5.82461C4.87131 6.00811 5.1688 6.00811 5.35229 5.82461C5.36 5.8178 5.36755 5.8107 5.37493 5.80332L6.08204 5.09621C6.08941 5.08884 6.09651 5.08129 6.10333 5.07358L9.61625 1.56066Z" fill="#333333"/>
</svg>
