<svg width="83" height="26" viewBox="0 0 83 26" fill="none" xmlns="http://www.w3.org/2000/svg">
<path d="M15.7978 17.2543V10.223H16.9909V17.2543H15.7978ZM12.8787 14.3352V13.142H19.91V14.3352H12.8787Z" fill="black"/>
<g clip-path="url(#clip0_4018_87)">
<path d="M3.99598 10.5353C6.2029 10.5353 7.99196 8.84844 7.99196 6.76763C7.99196 4.68683 6.2029 3 3.99598 3C1.78906 3 0 4.68683 0 6.76763C0 8.84844 1.78906 10.5353 3.99598 10.5353Z" fill="#5AB0FF"/>
<path d="M7.99183 26V15.4476C7.99183 13.3478 6.15866 11.6497 3.91545 11.7103C1.75263 11.7634 0.0561523 13.4842 0.0561523 15.5234V26H7.99183Z" fill="#5AB0FF"/>
</g>
<g clip-path="url(#clip1_4018_87)">
<path d="M50.2106 10.8296H46.9785C46.5009 10.8296 46.0605 11.0886 45.8281 11.5063L43.0137 16.5659H42.1243L39.1656 11.8085C38.9268 11.4249 38.5086 11.1904 38.0569 11.1873C38.0537 11.1873 38.051 11.1873 38.0478 11.1873C37.5997 11.1873 37.182 11.4154 36.94 11.7931L33.8787 16.5659H32.8186L31.4348 14.2622L32.3101 13.2537C32.3278 13.2346 32.3446 13.2151 32.3609 13.1951L32.4608 13.0801H32.4449C32.5793 12.8733 32.6579 12.6266 32.6579 12.3616C32.6579 11.6335 32.0686 11.0436 31.3412 11.0436H28.757C28.2826 11.0436 27.8445 11.2991 27.6111 11.7126C27.3773 12.1262 27.3841 12.6334 27.6288 13.0406L32.1662 20.5952C32.4009 20.9856 32.8199 21.2274 33.2753 21.2337C33.7316 21.2387 34.1565 21.0115 34.4026 20.6279L38.031 14.9707L41.54 20.612C41.7806 20.9992 42.2038 21.2333 42.6578 21.2333C42.6687 21.2333 42.6791 21.2333 42.69 21.2333C43.1563 21.2219 43.5812 20.9647 43.8082 20.557L47.7531 13.465H48.8944V19.8749C48.8944 20.6029 49.4837 21.1928 50.2111 21.1928C50.9384 21.1928 51.5277 20.6029 51.5277 19.8749V12.1475C51.5277 11.4195 50.9384 10.8296 50.2111 10.8296H50.2106Z" fill="black"/>
<path d="M50.2424 9.95943C51.059 9.95943 51.7211 9.29672 51.7211 8.47922C51.7211 7.66173 51.059 6.99902 50.2424 6.99902C49.4257 6.99902 48.7637 7.66173 48.7637 8.47922C48.7637 9.29672 49.4257 9.95943 50.2424 9.95943Z" fill="black"/>
<path d="M82.2551 19.2679L77.6456 11.8569C77.4236 11.4996 77.034 11.2815 76.6136 11.2783C76.6109 11.2783 76.6082 11.2783 76.605 11.2783C76.1878 11.2783 75.7992 11.4906 75.5735 11.8423L71.1878 18.6802C70.8796 18.6761 70.4996 18.6711 70.1195 18.6661C69.9357 18.6639 69.7518 18.6616 69.5757 18.6593V12.1477C69.5757 11.4701 69.0268 10.9207 68.3498 10.9207C67.6729 10.9207 67.124 11.4701 67.124 12.1477V19.8755C67.124 20.3722 67.4232 20.8199 67.8818 21.0094C68.0484 21.0785 68.2241 21.108 68.3971 21.1016C68.6513 21.1016 70.623 21.1266 71.8348 21.1435C72.2579 21.1498 72.6547 20.9362 72.8835 20.5795L75.8514 15.9525H77.3055L78.5472 17.9485L77.6297 19.0056H77.6488C77.4004 19.2301 77.2447 19.5546 77.2447 19.9159C77.2447 20.5935 77.7936 21.143 78.4705 21.143H81.215C81.6604 21.143 82.0703 20.9012 82.2864 20.5117C82.5025 20.1223 82.4907 19.646 82.2556 19.2674L82.2551 19.2679Z" fill="black"/>
<path d="M65.0555 18.6481H58.4338V17.7596C58.4397 17.6901 58.4397 17.6201 58.4338 17.5501V17.5411L58.4329 17.542C58.4106 17.2993 58.3171 17.0607 58.1478 16.8607C57.7101 16.3435 56.9365 16.2799 56.4203 16.7176L53.8016 18.9385C53.4093 19.2712 53.2663 19.8138 53.4429 20.2974C53.62 20.7805 54.0794 21.1018 54.5938 21.1018H65.0555C65.7324 21.1018 66.2813 20.5524 66.2813 19.8747C66.2813 19.1971 65.7324 18.6477 65.0555 18.6477V18.6481Z" fill="black"/>
<path d="M54.3415 13.5996H60.1991V14.3254C60.1469 14.659 60.2313 15.013 60.4624 15.2943C60.7049 15.5897 61.0563 15.7429 61.4108 15.7429C61.6846 15.7429 61.9597 15.6516 62.1877 15.4643L64.7964 13.321C65.1968 12.992 65.3471 12.4471 65.1727 11.959C64.9984 11.4709 64.5362 11.1455 64.0187 11.1455H54.3415C53.6646 11.1455 53.1157 11.695 53.1157 12.3726C53.1157 13.0502 53.6646 13.5996 54.3415 13.5996Z" fill="black"/>
<path d="M68.3586 9.95943C69.1752 9.95943 69.8373 9.29672 69.8373 8.47922C69.8373 7.66173 69.1752 6.99902 68.3586 6.99902C67.5419 6.99902 66.8799 7.66173 66.8799 8.47922C66.8799 9.29672 67.5419 9.95943 68.3586 9.95943Z" fill="black"/>
</g>
<defs>
<clipPath id="clip0_4018_87">
<rect width="8" height="23" fill="white" transform="translate(0 3)"/>
</clipPath>
<clipPath id="clip1_4018_87">
<rect width="55" height="14.2353" fill="white" transform="translate(27.4404 7)"/>
</clipPath>
</defs>
</svg>
