<svg width="27" height="27" viewBox="0 0 27 27" fill="none" xmlns="http://www.w3.org/2000/svg">
<path fill-rule="evenodd" clip-rule="evenodd" d="M8.72479 8.78766C9.03023 8.48222 9.52544 8.48222 9.83087 8.78766L17.5236 16.4804C17.8291 16.7859 17.8291 17.2811 17.5236 17.5865C17.2182 17.892 16.723 17.892 16.4176 17.5865L8.72479 9.89375C8.41935 9.58831 8.41935 9.0931 8.72479 8.78766Z" fill="#0C0C0C"/>
<path fill-rule="evenodd" clip-rule="evenodd" d="M17.5886 8.72442C17.894 9.02986 17.894 9.52507 17.5886 9.83051L9.89579 17.5233C9.59035 17.8287 9.09514 17.8287 8.7897 17.5233C8.48426 17.2178 8.48426 16.7226 8.7897 16.4172L16.4825 8.72442C16.7879 8.41899 17.2831 8.41899 17.5886 8.72442Z" fill="#0C0C0C"/>
<path fill-rule="evenodd" clip-rule="evenodd" d="M13.1268 21.1784C17.5737 21.1784 21.1787 17.5735 21.1787 13.1266C21.1787 8.67963 17.5737 5.07468 13.1268 5.07468C8.67987 5.07468 5.07492 8.67963 5.07492 13.1266C5.07492 17.5735 8.67987 21.1784 13.1268 21.1784ZM13.1268 23.0366C18.5999 23.0366 23.0368 18.5997 23.0368 13.1266C23.0368 7.65341 18.5999 3.21655 13.1268 3.21655C7.65366 3.21655 3.2168 7.65341 3.2168 13.1266C3.2168 18.5997 7.65366 23.0366 13.1268 23.0366Z" fill="black"/>
</svg>
