<svg width="50" height="50" viewBox="0 0 50 50" fill="none" xmlns="http://www.w3.org/2000/svg">
<g clip-path="url(#clip0_44_2928)">
<path d="M31.2429 41L23.5524 33.2083L26.0857 30.6417L31.2429 35.8667L41.4667 25.5083L44 28.075L31.2429 41ZM24.0952 20.8333L38.5714 11.6667H9.61905L24.0952 20.8333ZM24.0952 24.5L9.61905 15.3333V33.6667H18.9381L22.5571 37.3333H9.61905C8.62381 37.3333 7.77333 36.9667 7.06762 36.2517C6.3619 35.5367 6 34.675 6 33.6667V11.6667C6 10.6583 6.3619 9.79667 7.06762 9.08167C7.77333 8.36667 8.62381 8 9.61905 8H38.5714C39.5667 8 40.4171 8.36667 41.1229 9.08167C41.8286 9.79667 42.1905 10.6583 42.1905 11.6667V19.6417L38.5714 23.3083V15.3333L24.0952 24.5Z" fill="#FF550D"/>
</g>
<defs>
<clipPath id="clip0_44_2928">
<rect width="38" height="33" fill="white" transform="translate(6 8)"/>
</clipPath>
</defs>
</svg>
