<svg width="109" height="22" viewBox="0 0 109 22" fill="none" xmlns="http://www.w3.org/2000/svg">
<rect x="86" y="6" width="23" height="10" rx="2" fill="#C8F549"/>
<g clip-path="url(#clip0_4001_88)">
<path d="M35.1903 5.92017H30.1953C29.4571 5.92017 28.7765 6.32051 28.4173 6.96598L24.0678 14.7853H22.6933L18.1207 7.43305C17.7516 6.84026 17.1054 6.47784 16.4073 6.47292C16.4023 6.47292 16.3981 6.47292 16.3932 6.47292C15.7007 6.47292 15.0552 6.82551 14.6812 7.40917L9.95002 14.7853H8.31169L6.17307 11.2251L7.52584 9.66655C7.55321 9.63705 7.57917 9.60685 7.60443 9.57595L7.75879 9.39825H7.73423C7.94192 9.07868 8.0633 8.69729 8.0633 8.28782C8.0633 7.16264 7.15257 6.25098 6.02853 6.25098H2.03478C1.30156 6.25098 0.62447 6.6457 0.263825 7.28485C-0.097522 7.924 -0.0869973 8.70783 0.291189 9.33714L7.30342 21.0125C7.66617 21.6158 8.31379 21.9894 9.01754 21.9993C9.72269 22.007 10.3794 21.6558 10.7597 21.063L16.3673 12.3201L21.7903 21.0384C22.1621 21.6369 22.8161 21.9986 23.5177 21.9986C23.5346 21.9986 23.5507 21.9986 23.5675 21.9986C24.2881 21.981 24.9449 21.5835 25.2957 20.9535L31.3923 9.99315H33.1562V19.8992C33.1562 21.0244 34.0669 21.9361 35.191 21.9361C36.315 21.9361 37.2257 21.0244 37.2257 19.8992V7.95701C37.2257 6.83183 36.315 5.92017 35.191 5.92017H35.1903Z" fill="black"/>
<path d="M35.2394 4.57517C36.5015 4.57517 37.5246 3.55098 37.5246 2.28758C37.5246 1.02419 36.5015 0 35.2394 0C33.9772 0 32.9541 1.02419 32.9541 2.28758C32.9541 3.55098 33.9772 4.57517 35.2394 4.57517Z" fill="black"/>
<path d="M84.7135 18.9608L77.5897 7.50741C77.2466 6.95535 76.6446 6.61822 75.9949 6.6133C75.9907 6.6133 75.9865 6.6133 75.9815 6.6133C75.3367 6.6133 74.7361 6.94131 74.3874 7.48493L67.6095 18.0526C67.1331 18.0463 66.5458 18.0386 65.9585 18.0309C65.6744 18.0273 65.3902 18.0238 65.118 18.0203V7.95692C65.118 6.9097 64.2697 6.06055 63.2235 6.06055C62.1774 6.06055 61.3291 6.9097 61.3291 7.95692V19.8998C61.3291 20.6675 61.7915 21.3593 62.5001 21.6522C62.7576 21.759 63.0292 21.8046 63.2965 21.7948C63.6894 21.7948 66.7367 21.8334 68.6094 21.8594C69.2633 21.8692 69.8765 21.5391 70.2302 20.9878L74.8168 13.8371H77.0642L78.9832 16.9218L77.5651 18.5555H77.5946C77.2108 18.9025 76.9702 19.404 76.9702 19.9623C76.9702 21.0096 77.8184 21.8587 78.8646 21.8587H83.106C83.7943 21.8587 84.4279 21.4851 84.7619 20.8831C85.0959 20.2812 85.0777 19.5451 84.7142 18.9601L84.7135 18.9608Z" fill="black"/>
<path d="M58.1325 18.0036H47.899V16.6305C47.9081 16.5231 47.9081 16.4149 47.899 16.3067V16.2927L47.8976 16.2941C47.8632 15.919 47.7187 15.5503 47.457 15.2413C46.7806 14.442 45.585 14.3437 44.7872 15.02L40.7401 18.4525C40.1339 18.9666 39.9129 19.8052 40.1858 20.5525C40.4595 21.2991 41.1695 21.7957 41.9645 21.7957H58.1325C59.1786 21.7957 60.0269 20.9465 60.0269 19.8993C60.0269 18.8521 59.1786 18.0029 58.1325 18.0029V18.0036Z" fill="black"/>
<path d="M41.5746 10.2005H50.6272V11.3221C50.5465 11.8377 50.677 12.3848 51.0342 12.8196C51.4089 13.2761 51.9519 13.5128 52.4999 13.5128C52.923 13.5128 53.3482 13.3716 53.7004 13.0822L57.7321 9.76991C58.3509 9.2614 58.5832 8.41927 58.3137 7.66494C58.0443 6.9106 57.33 6.40771 56.5302 6.40771H41.5746C40.5285 6.40771 39.6802 7.25687 39.6802 8.30409C39.6802 9.3513 40.5285 10.2005 41.5746 10.2005Z" fill="black"/>
<path d="M63.2369 4.57517C64.499 4.57517 65.5222 3.55098 65.5222 2.28758C65.5222 1.02419 64.499 0 63.2369 0C61.9748 0 60.9517 1.02419 60.9517 2.28758C60.9517 3.55098 61.9748 4.57517 63.2369 4.57517Z" fill="black"/>
</g>
<path d="M90.3161 13V9.36364H91.772C92.0395 9.36364 92.2627 9.40329 92.4414 9.4826C92.6201 9.56191 92.7545 9.67199 92.8445 9.81286C92.9344 9.95253 92.9794 10.1135 92.9794 10.2958C92.9794 10.4379 92.951 10.5627 92.8942 10.6705C92.8374 10.777 92.7592 10.8646 92.6598 10.9332C92.5616 11.0007 92.4491 11.0487 92.3224 11.0771V11.1126C92.4609 11.1185 92.5906 11.1576 92.7113 11.2298C92.8332 11.302 92.9321 11.4032 93.0078 11.5334C93.0836 11.6624 93.1214 11.8163 93.1214 11.995C93.1214 12.188 93.0735 12.3602 92.9776 12.5117C92.8829 12.6621 92.7427 12.781 92.5568 12.8686C92.371 12.9562 92.1419 13 91.8697 13H90.3161ZM91.0849 12.3714H91.7116C91.9259 12.3714 92.0821 12.3306 92.1804 12.2489C92.2786 12.1661 92.3278 12.056 92.3278 11.9187C92.3278 11.8181 92.3035 11.7293 92.255 11.6523C92.2064 11.5754 92.1372 11.515 92.0472 11.4712C91.9585 11.4274 91.8525 11.4055 91.7294 11.4055H91.0849V12.3714ZM91.0849 10.8853H91.6548C91.7602 10.8853 91.8537 10.867 91.9354 10.8303C92.0182 10.7924 92.0833 10.7391 92.1307 10.6705C92.1792 10.6018 92.2035 10.5195 92.2035 10.4237C92.2035 10.2923 92.1567 10.1863 92.0632 10.1058C91.9709 10.0253 91.8395 9.98509 91.669 9.98509H91.0849V10.8853ZM94.6217 13V9.36364H97.072V9.99751H95.3905V10.864H96.9459V11.4979H95.3905V12.3661H97.0791V13H94.6217ZM98.5447 9.99751V9.36364H101.531V9.99751H100.418V13H99.658V9.99751H98.5447ZM103.206 13H102.382L103.637 9.36364H104.628L105.881 13H105.057L104.147 10.1946H104.118L103.206 13ZM103.154 11.5707H105.1V12.1708H103.154V11.5707Z" fill="black"/>
<defs>
<clipPath id="clip0_4001_88">
<rect width="85" height="22" fill="white"/>
</clipPath>
</defs>
</svg>
