<svg width="80" height="23" viewBox="0 0 80 23" fill="none" xmlns="http://www.w3.org/2000/svg">
<g clip-path="url(#clip0_44_2607)">
<path d="M3.99598 7.54308C6.2029 7.54308 7.99196 5.85625 7.99196 3.77545C7.99196 1.69464 6.2029 0.0078125 3.99598 0.0078125C1.78906 0.0078125 0 1.69464 0 3.77545C0 5.85625 1.78906 7.54308 3.99598 7.54308Z" fill="#5AB0FF"/>
<path d="M7.99183 23.0078V12.4554C7.99183 10.3556 6.15866 8.65748 3.91545 8.71813C1.75263 8.77119 0.0561523 10.492 0.0561523 12.5312V23.0078H7.99183Z" fill="#5AB0FF"/>
</g>
<g clip-path="url(#clip1_44_2607)">
<path d="M15.996 7.54308C18.2029 7.54308 19.992 5.85625 19.992 3.77545C19.992 1.69464 18.2029 0.0078125 15.996 0.0078125C13.7891 0.0078125 12 1.69464 12 3.77545C12 5.85625 13.7891 7.54308 15.996 7.54308Z" fill="#5AB0FF"/>
<path d="M19.9918 23.0078V12.4554C19.9918 10.3556 18.1587 8.65748 15.9154 8.71813C13.7526 8.77119 12.0562 10.492 12.0562 12.5312V23.0078H19.9918Z" fill="#5AB0FF"/>
</g>
<g clip-path="url(#clip2_44_2607)">
<path d="M39.996 7.54308C42.2029 7.54308 43.992 5.85625 43.992 3.77545C43.992 1.69464 42.2029 0.0078125 39.996 0.0078125C37.7891 0.0078125 36 1.69464 36 3.77545C36 5.85625 37.7891 7.54308 39.996 7.54308Z" fill="#5AB0FF"/>
<path d="M43.9918 23.0078V12.4554C43.9918 10.3556 42.1587 8.65748 39.9154 8.71813C37.7526 8.77119 36.0562 10.492 36.0562 12.5312V23.0078H43.9918Z" fill="#5AB0FF"/>
</g>
<g clip-path="url(#clip3_44_2607)">
<path d="M27.996 7.54308C30.2029 7.54308 31.992 5.85625 31.992 3.77545C31.992 1.69464 30.2029 0.0078125 27.996 0.0078125C25.7891 0.0078125 24 1.69464 24 3.77545C24 5.85625 25.7891 7.54308 27.996 7.54308Z" fill="#5AB0FF"/>
<path d="M31.9918 23.0078V12.4554C31.9918 10.3556 30.1587 8.65748 27.9154 8.71813C25.7526 8.77119 24.0562 10.492 24.0562 12.5312V23.0078H31.9918Z" fill="#5AB0FF"/>
</g>
<g clip-path="url(#clip4_44_2607)">
<path d="M51.996 7.54308C54.2029 7.54308 55.992 5.85625 55.992 3.77545C55.992 1.69464 54.2029 0.0078125 51.996 0.0078125C49.7891 0.0078125 48 1.69464 48 3.77545C48 5.85625 49.7891 7.54308 51.996 7.54308Z" fill="#5AB0FF"/>
<path d="M55.9918 23.0078V12.4554C55.9918 10.3556 54.1587 8.65748 51.9154 8.71813C49.7526 8.77119 48.0562 10.492 48.0562 12.5312V23.0078H55.9918Z" fill="#5AB0FF"/>
</g>
<g clip-path="url(#clip5_44_2607)">
<path d="M63.996 7.54308C66.2029 7.54308 67.992 5.85625 67.992 3.77545C67.992 1.69464 66.2029 0.0078125 63.996 0.0078125C61.7891 0.0078125 60 1.69464 60 3.77545C60 5.85625 61.7891 7.54308 63.996 7.54308Z" fill="#5AB0FF"/>
<path d="M67.9918 23.0078V12.4554C67.9918 10.3556 66.1587 8.65748 63.9154 8.71813C61.7526 8.77119 60.0562 10.492 60.0562 12.5312V23.0078H67.9918Z" fill="#5AB0FF"/>
</g>
<g clip-path="url(#clip6_44_2607)">
<path d="M75.996 7.54308C78.2029 7.54308 79.992 5.85625 79.992 3.77545C79.992 1.69464 78.2029 0.0078125 75.996 0.0078125C73.7891 0.0078125 72 1.69464 72 3.77545C72 5.85625 73.7891 7.54308 75.996 7.54308Z" fill="#5AB0FF"/>
<path d="M79.9918 23.0078V12.4554C79.9918 10.3556 78.1587 8.65748 75.9154 8.71813C73.7526 8.77119 72.0562 10.492 72.0562 12.5312V23.0078H79.9918Z" fill="#5AB0FF"/>
</g>
<defs>
<clipPath id="clip0_44_2607">
<rect width="8" height="23" fill="white" transform="translate(0 0.0078125)"/>
</clipPath>
<clipPath id="clip1_44_2607">
<rect width="8" height="23" fill="white" transform="translate(12 0.0078125)"/>
</clipPath>
<clipPath id="clip2_44_2607">
<rect width="8" height="23" fill="white" transform="translate(36 0.0078125)"/>
</clipPath>
<clipPath id="clip3_44_2607">
<rect width="8" height="23" fill="white" transform="translate(24 0.0078125)"/>
</clipPath>
<clipPath id="clip4_44_2607">
<rect width="8" height="23" fill="white" transform="translate(48 0.0078125)"/>
</clipPath>
<clipPath id="clip5_44_2607">
<rect width="8" height="23" fill="white" transform="translate(60 0.0078125)"/>
</clipPath>
<clipPath id="clip6_44_2607">
<rect width="8" height="23" fill="white" transform="translate(72 0.0078125)"/>
</clipPath>
</defs>
</svg>
