<svg width="50" height="50" viewBox="0 0 50 50" fill="none" xmlns="http://www.w3.org/2000/svg">
<path fill-rule="evenodd" clip-rule="evenodd" d="M39.1233 34.8519C41.559 31.7186 43.0095 27.781 43.0095 23.5048C43.0095 13.2849 34.7247 5 24.5048 5C14.2849 5 6 13.2849 6 23.5048C6 33.7247 14.2849 42.0095 24.5048 42.0095C28.781 42.0095 32.7186 40.559 35.8519 38.1233L42.0512 44.3224C42.9545 45.2259 44.4191 45.2259 45.3224 44.3224C46.2259 43.4191 46.2259 41.9545 45.3224 41.0512L39.1233 34.8519ZM24.5048 37.3833C32.1697 37.3833 38.3833 31.1697 38.3833 23.5048C38.3833 15.8398 32.1697 9.62619 24.5048 9.62619C16.8398 9.62619 10.6262 15.8398 10.6262 23.5048C10.6262 31.1697 16.8398 37.3833 24.5048 37.3833Z" fill="#FF550D"/>
<g clip-path="url(#clip0_44_2949)">
<path d="M21.2071 20.1477C22.7022 20.1477 23.9142 18.9954 23.9142 17.5739C23.9142 16.1524 22.7022 15 21.2071 15C19.712 15 18.5 16.1524 18.5 17.5739C18.5 18.9954 19.712 20.1477 21.2071 20.1477Z" fill="#FF550D"/>
<path d="M23.9117 31.2501V24.04C23.9117 22.6054 22.667 21.4475 21.1508 21.4871C19.6884 21.5243 18.5391 22.7008 18.5391 24.0935V31.2501H23.9117Z" fill="#FF550D"/>
</g>
<g clip-path="url(#clip1_44_2949)">
<path d="M28.2492 22.3682C29.4453 22.3682 30.4149 21.4463 30.4149 20.3091C30.4149 19.1719 29.4453 18.25 28.2492 18.25C27.0531 18.25 26.0835 19.1719 26.0835 20.3091C26.0835 21.4463 27.0531 22.3682 28.2492 22.3682Z" fill="#FF550D"/>
<path d="M30.4129 31.2499V25.4819C30.4129 24.3342 29.4171 23.4079 28.2041 23.4395C27.0342 23.4693 26.1147 24.4105 26.1147 25.5246V31.2499H30.4129Z" fill="#FF550D"/>
</g>
<defs>
<clipPath id="clip0_44_2949">
<rect width="5.41667" height="16.25" fill="white" transform="translate(18.5 15)"/>
</clipPath>
<clipPath id="clip1_44_2949">
<rect width="4.33333" height="13" fill="white" transform="translate(26.0835 18.25)"/>
</clipPath>
</defs>
</svg>
