<svg width="50" height="50" viewBox="0 0 50 50" fill="none" xmlns="http://www.w3.org/2000/svg">
<g clip-path="url(#clip0_44_2931)">
<path d="M25.6046 12.3944L29.2246 18.8805C29.8291 19.9662 30.7359 20.8545 31.8442 21.4468L38.4652 24.993L31.8442 28.5391C30.7359 29.1314 29.8291 30.0197 29.2246 31.1054L25.6046 37.5915L21.9846 31.1054C21.3801 30.0197 20.4733 29.1314 19.365 28.5391L12.744 24.993L19.365 21.4468C20.4733 20.8545 21.3801 19.9662 21.9846 18.8805L25.6046 12.3944ZM25.6046 6C24.8202 6 24.0357 6.38776 23.6039 7.16327L18.1919 16.8571C17.9832 17.2308 17.6666 17.541 17.2851 17.7455L7.38959 23.0471C5.8135 23.8931 5.8135 26.1139 7.38959 26.9599L17.2851 32.2616C17.6666 32.466 17.9832 32.7763 18.1919 33.1499L23.6039 42.8438C24.0357 43.6193 24.8202 44.007 25.6046 44.007C26.3891 44.007 27.1735 43.6193 27.6053 42.8438L33.0173 33.1499C33.226 32.7763 33.5427 32.466 33.9241 32.2616L43.8196 26.9599C45.3957 26.1139 45.3957 23.8931 43.8196 23.0471L33.9241 17.7455C33.5427 17.541 33.226 17.2308 33.0173 16.8571L27.6053 7.16327C27.1735 6.38776 26.3891 6 25.6046 6Z" fill="#FF4100"/>
<path d="M8.37564 15.9477C10.7922 15.9477 12.7513 14.0286 12.7513 11.6612C12.7513 9.29387 10.7922 7.37476 8.37564 7.37476C5.95904 7.37476 4 9.29387 4 11.6612C4 14.0286 5.95904 15.9477 8.37564 15.9477Z" fill="#FF4100"/>
</g>
<defs>
<clipPath id="clip0_44_2931">
<rect width="50" height="50" fill="white"/>
</clipPath>
</defs>
</svg>
